<svg width="13" height="14" viewBox="0 0 13 14" fill="none" xmlns="http://www.w3.org/2000/svg">
<g clip-path="url(#clip0)">
<path d="M9.79688 7.09904C10.2061 7.09904 10.5391 6.76612 10.5391 6.35685V2.15112H10.7865C10.9231 2.15112 11.0339 2.04037 11.0339 1.90373V0.914144C11.0339 0.777496 10.9231 0.666748 10.7865 0.666748H1.88021C1.74356 0.666748 1.63281 0.777496 1.63281 0.914144V1.90373C1.63281 2.04037 1.74356 2.15112 1.88021 2.15112H2.1276V3.3881C2.1276 3.52475 2.23835 3.6355 2.375 3.6355C2.51165 3.6355 2.6224 3.52475 2.6224 3.3881V2.15112H10.0443V6.35685C10.0443 6.49331 9.93333 6.60425 9.79688 6.60425H9.54387C9.45555 4.59667 8.20127 2.64591 6.33333 2.64591C4.43119 2.64591 3.20909 4.64286 3.12279 6.60425H2.86979C2.73334 6.60425 2.6224 6.49331 2.6224 6.35685V5.36727C2.6224 5.23062 2.51165 5.11987 2.375 5.11987C2.23835 5.11987 2.1276 5.23062 2.1276 5.36727V6.35685C2.1276 6.76612 2.46053 7.09904 2.86979 7.09904H3.12241C3.13796 7.48965 3.1888 7.89882 3.26379 8.24412C2.90207 8.2934 2.6224 8.60419 2.6224 8.97925V9.47404C2.6224 9.61069 2.73314 9.72144 2.86979 9.72144H3.20339C3.39367 10.5342 3.88759 11.274 4.56465 11.7597L4.12117 13.0029C4.09411 13.0787 4.10561 13.1628 4.152 13.2286C4.19829 13.2943 4.27376 13.3334 4.35417 13.3334H8.3125C8.3929 13.3334 8.46838 13.2943 8.51467 13.2286C8.56106 13.1628 8.57256 13.0787 8.5455 13.0029L8.10202 11.7597C8.77917 11.2739 9.273 10.5341 9.46328 9.72144H9.79688C9.93352 9.72144 10.0443 9.61069 10.0443 9.47404V8.97925C10.0443 8.60419 9.7646 8.2934 9.40288 8.24412C9.47787 7.89882 9.52861 7.48965 9.54426 7.09904H9.79688ZM2.1276 1.65633V1.16154H10.5391V1.65633H2.1276ZM6.33333 3.14071C7.83385 3.14071 9.05469 4.80541 9.05469 6.85164C9.05469 7.31715 8.99429 7.83881 8.89717 8.23706H8.3786C8.49138 7.82267 8.5599 7.31406 8.5599 6.85164C8.5599 5.38834 7.74001 3.6355 6.33333 3.6355C4.94589 3.6355 4.10677 5.35635 4.10677 6.85164C4.10677 7.31406 4.17529 7.82267 4.28807 8.23706H3.7695C3.67238 7.83881 3.61198 7.31715 3.61198 6.85164C3.61198 4.80541 4.83282 3.14071 6.33333 3.14071ZM8.0651 6.85164C8.0651 7.31793 7.98605 7.85041 7.86332 8.23706H4.80334C4.68061 7.8505 4.60156 7.31793 4.60156 6.85164C4.60156 5.72309 5.21754 4.13029 6.33333 4.13029C7.44768 4.13029 8.0651 5.72029 8.0651 6.85164ZM4.70506 12.8386L4.99662 12.0214C5.41749 12.2329 5.8741 12.3438 6.33333 12.3438C6.79256 12.3438 7.24918 12.2329 7.67004 12.0214L7.9616 12.8386H4.70506ZM6.33333 11.849C5.09722 11.849 4.03816 10.8942 3.71374 9.72115H8.95283C8.62861 10.8941 7.56944 11.849 6.33333 11.849ZM9.54948 8.97925V9.22664H3.11719V8.97925C3.11719 8.84279 3.22813 8.73185 3.36458 8.73185H9.30208C9.43854 8.73185 9.54948 8.84279 9.54948 8.97925Z" fill="#463BB1"/>
<path d="M2.62248 4.37752C2.62248 4.51417 2.51173 4.62492 2.37508 4.62492C2.23843 4.62492 2.12769 4.51417 2.12769 4.37752C2.12769 4.24088 2.23843 4.13013 2.37508 4.13013C2.51173 4.13013 2.62248 4.24088 2.62248 4.37752Z" fill="#463BB1"/>
</g>
<defs>
<clipPath id="clip0">
<rect y="0.666748" width="12.6667" height="12.6667" fill="white"/>
</clipPath>
</defs>
</svg>
