<svg width="14" height="14" viewBox="0 0 14 14" fill="none" xmlns="http://www.w3.org/2000/svg">
<g clip-path="url(#clip0)">
<path d="M13.6449 9.65047C13.6655 9.59547 13.6727 9.53493 13.6538 9.47381L12.5555 5.90435V2.61105C12.5555 1.8455 11.9327 1.22217 11.1666 1.22217H2.83325C2.06713 1.22217 1.44437 1.8455 1.44437 2.61105V5.90438L0.346038 9.47381C0.327158 9.53435 0.334372 9.59493 0.354919 9.65047C0.341585 9.70938 0.333252 9.76993 0.333252 9.83326V12.0555V13.1666C0.333252 13.3199 0.457705 13.4444 0.611038 13.4444H1.72216C1.87547 13.4444 1.99992 13.3199 1.99992 13.1666V12.3333H11.9999V13.1666C11.9999 13.3199 12.1244 13.4444 12.2777 13.4444H13.3888C13.5422 13.4444 13.6666 13.3199 13.6666 13.1666V12.0555V9.83326C13.6666 9.76993 13.6583 9.70938 13.6449 9.65047ZM1.99992 2.61105C1.99992 2.15159 2.3738 1.77771 2.83325 1.77771H11.1666C11.626 1.77771 11.9999 2.15159 11.9999 2.61105V5.66659H11.2449L10.986 4.63105C10.8927 4.25938 10.5599 3.99993 10.1771 3.99993H8.3888C7.92935 3.99993 7.55547 4.37381 7.55547 4.83326V5.66659H6.44435V4.83381C6.44435 4.37435 6.07047 4.00047 5.61101 4.00047H3.82268C3.43989 4.00047 3.10713 4.26047 3.0138 4.63159L2.75492 5.66659H1.99992V2.61105ZM10.6744 6.11547C10.621 6.18326 10.541 6.22214 10.4549 6.22214H8.3888C8.23601 6.22214 8.11101 6.09769 8.11101 5.94435V4.83326C8.11101 4.67993 8.23601 4.55547 8.3888 4.55547H10.1777C10.3055 4.55547 10.416 4.64159 10.4471 4.76547L10.7249 5.87659C10.746 5.96047 10.7277 6.04714 10.6744 6.11547ZM5.88937 4.83326V5.94159C5.88937 5.94271 5.88882 5.94326 5.88882 5.94438C5.88882 5.94493 5.88882 5.9455 5.88882 5.9455C5.88828 6.09829 5.76382 6.22217 5.61161 6.22217H3.54549C3.45882 6.22217 3.37937 6.18329 3.32604 6.1155C3.2727 6.04717 3.25437 5.95995 3.27549 5.87662L3.55328 4.7655C3.5844 4.64217 3.69494 4.5555 3.82328 4.5555H5.61161C5.76437 4.55547 5.88937 4.67993 5.88937 4.83326ZM1.92713 6.22214H2.76325C2.7927 6.30547 2.83104 6.38547 2.88713 6.45769C3.04713 6.66102 3.28659 6.77769 3.54492 6.77769H5.61104C5.97271 6.77769 6.27825 6.54435 6.39325 6.22214H7.60658C7.72158 6.54493 8.02713 6.77769 8.3888 6.77769H10.4549C10.7133 6.77769 10.9521 6.66102 11.1121 6.45769C11.1683 6.38602 11.2066 6.30547 11.236 6.22214H12.0727L12.9305 9.00993C12.8983 9.00605 12.8666 8.99993 12.8333 8.99993H1.16659C1.13325 8.99993 1.10159 9.00605 1.06992 9.00993L1.92713 6.22214ZM1.44437 12.8888H0.888799V12.3333H1.44435V12.8888H1.44437ZM13.111 12.8888H12.5555V12.3333H13.111V12.8888V12.8888ZM13.111 11.7777H0.888799V9.83326C0.888799 9.67993 1.0138 9.55547 1.16659 9.55547H12.8333C12.986 9.55547 13.111 9.67993 13.111 9.83326V11.7777Z" fill="#463BB1"/>
</g>
<defs>
<clipPath id="clip0">
<rect x="0.333252" y="0.666748" width="13.3333" height="13.3333" fill="white"/>
</clipPath>
</defs>
</svg>
