<svg width="22" height="22" viewBox="0 0 22 22" fill="none" xmlns="http://www.w3.org/2000/svg">
<path fill-rule="evenodd" clip-rule="evenodd" d="M15.4117 6.24883C15.4117 8.44795 13.4804 10.2307 11.098 10.2307C8.71567 10.2307 6.78439 8.44795 6.78439 6.24883C6.78439 4.0497 8.71567 2.26696 11.098 2.26696C13.4804 2.26696 15.4117 4.0497 15.4117 6.24883ZM13.8371 10.8497C15.5939 9.95658 16.7842 8.23102 16.7842 6.24883C16.7842 3.34998 14.2384 1 11.098 1C7.95765 1 5.41186 3.34998 5.41186 6.24883C5.41186 8.21383 6.58163 9.92664 8.31343 10.8263C6.04114 11.4109 4.49947 12.7248 3.43553 14.255C2.16014 16.0893 1.56414 18.2477 1.14813 19.7543C1.10441 19.9127 1.06268 20.0638 1.02236 20.2066C0.926758 20.5451 1.14658 20.8911 1.51333 20.9794C1.88009 21.0676 2.25491 20.8647 2.3505 20.5261C2.3917 20.3802 2.43364 20.2291 2.47682 20.0734C2.89989 18.5479 3.44293 16.59 4.59061 14.9394C5.82183 13.1686 7.7383 11.7691 11.0318 11.7691C14.3247 11.7691 16.2297 13.168 17.4475 14.9369C18.5833 16.5868 19.1127 18.5442 19.5253 20.0697L19.5254 20.0701C19.5674 20.2256 19.6083 20.3767 19.6485 20.5225C19.7419 20.8616 20.1154 21.0665 20.4827 20.9803C20.85 20.8941 21.0721 20.5493 20.9787 20.2102C20.9393 20.0675 20.8986 19.9163 20.856 19.758C20.4504 18.2515 19.8691 16.0924 18.6059 14.2574C17.5653 12.7459 16.0576 11.4457 13.8371 10.8497Z" fill="white" stroke="white" stroke-linecap="round"/>
</svg>
