<svg width="241" height="61" viewBox="0 0 241 61" fill="none" xmlns="http://www.w3.org/2000/svg">
<path d="M68.6107 59.7624L68.5771 44.0113L60.847 57.0467H58.8977L51.1675 44.215V59.7624H47V36H50.5962L59.9395 51.7511L69.1149 36H72.711L72.7447 59.7624H68.6107Z" fill="black"/>
<path d="M86.7623 60C84.9474 60 83.3118 59.604 81.8554 58.8119C80.399 58.0198 79.2563 56.9222 78.4272 55.5191C77.6206 54.0934 77.2173 52.4866 77.2173 50.6987C77.2173 48.9109 77.6206 47.3154 78.4272 45.9123C79.2563 44.5092 80.399 43.4116 81.8554 42.6195C83.3118 41.8274 84.9474 41.4314 86.7623 41.4314C88.5996 41.4314 90.2465 41.8274 91.7029 42.6195C93.1593 43.4116 94.2908 44.5092 95.0974 45.9123C95.9264 47.3154 96.341 48.9109 96.341 50.6987C96.341 52.4866 95.9264 54.0934 95.0974 55.5191C94.2908 56.9222 93.1593 58.0198 91.7029 58.8119C90.2465 59.604 88.5996 60 86.7623 60ZM86.7623 56.3678C88.3083 56.3678 89.5855 55.8472 90.5938 54.8062C91.6021 53.7652 92.1062 52.396 92.1062 50.6987C92.1062 49.0014 91.6021 47.6323 90.5938 46.5912C89.5855 45.5502 88.3083 45.0297 86.7623 45.0297C85.2163 45.0297 83.9392 45.5502 82.9309 46.5912C81.945 47.6323 81.4521 49.0014 81.4521 50.6987C81.4521 52.396 81.945 53.7652 82.9309 54.8062C83.9392 55.8472 85.2163 56.3678 86.7623 56.3678Z" fill="black"/>
<path d="M116.671 41.6351L108.974 59.7624H104.638L96.942 41.6351H101.311L106.89 55.0778L112.637 41.6351H116.671Z" fill="black"/>
<path d="M135.676 50.8006C135.676 51.0948 135.653 51.5134 135.609 52.0566H121.526C121.773 53.3918 122.411 54.4554 123.442 55.2475C124.495 56.017 125.795 56.4017 127.341 56.4017C129.312 56.4017 130.937 55.7454 132.214 54.4328L134.466 57.0467C133.659 58.0198 132.64 58.7553 131.407 59.2532C130.175 59.7511 128.786 60 127.24 60C125.268 60 123.532 59.604 122.03 58.8119C120.529 58.0198 119.364 56.9222 118.535 55.5191C117.728 54.0934 117.325 52.4866 117.325 50.6987C117.325 48.9335 117.717 47.3494 118.502 45.9463C119.308 44.5205 120.417 43.4116 121.829 42.6195C123.24 41.8274 124.831 41.4314 126.601 41.4314C128.349 41.4314 129.906 41.8274 131.273 42.6195C132.662 43.389 133.738 44.4866 134.499 45.9123C135.284 47.3154 135.676 48.9448 135.676 50.8006ZM126.601 44.826C125.257 44.826 124.114 45.2334 123.173 46.0481C122.255 46.8402 121.694 47.9038 121.493 49.239H131.676C131.497 47.9264 130.948 46.8628 130.029 46.0481C129.111 45.2334 127.968 44.826 126.601 44.826Z" fill="black"/>
<path d="M161.02 36V59.7624H156.65V49.5785H144.484V59.7624H140.115V36H144.484V45.8105H156.65V36H161.02Z" fill="black"/>
<path d="M174.987 60C173.172 60 171.536 59.604 170.08 58.8119C168.623 58.0198 167.48 56.9222 166.651 55.5191C165.845 54.0934 165.441 52.4866 165.441 50.6987C165.441 48.9109 165.845 47.3154 166.651 45.9123C167.48 44.5092 168.623 43.4116 170.08 42.6195C171.536 41.8274 173.172 41.4314 174.987 41.4314C176.824 41.4314 178.471 41.8274 179.927 42.6195C181.383 43.4116 182.515 44.5092 183.322 45.9123C184.151 47.3154 184.565 48.9109 184.565 50.6987C184.565 52.4866 184.151 54.0934 183.322 55.5191C182.515 56.9222 181.383 58.0198 179.927 58.8119C178.471 59.604 176.824 60 174.987 60ZM174.987 56.3678C176.533 56.3678 177.81 55.8472 178.818 54.8062C179.826 53.7652 180.33 52.396 180.33 50.6987C180.33 49.0014 179.826 47.6323 178.818 46.5912C177.81 45.5502 176.533 45.0297 174.987 45.0297C173.44 45.0297 172.163 45.5502 171.155 46.5912C170.169 47.6323 169.676 49.0014 169.676 50.6987C169.676 52.396 170.169 53.7652 171.155 54.8062C172.163 55.8472 173.44 56.3678 174.987 56.3678Z" fill="black"/>
<path d="M211.235 41.4314C213.498 41.4314 215.291 42.099 216.613 43.4342C217.935 44.7468 218.596 46.727 218.596 49.3748V59.7624H214.394V49.918C214.394 48.3338 214.047 47.1457 213.352 46.3536C212.658 45.5389 211.661 45.1315 210.361 45.1315C208.95 45.1315 207.818 45.6068 206.967 46.5573C206.115 47.4851 205.69 48.8204 205.69 50.5629V59.7624H201.488V49.918C201.488 48.3338 201.141 47.1457 200.447 46.3536C199.752 45.5389 198.755 45.1315 197.455 45.1315C196.021 45.1315 194.879 45.5955 194.027 46.5233C193.198 47.4512 192.784 48.7977 192.784 50.5629V59.7624H188.582V41.6351H192.582V43.9434C193.254 43.1287 194.094 42.5064 195.103 42.0764C196.111 41.6464 197.231 41.4314 198.464 41.4314C199.808 41.4314 200.995 41.6917 202.026 42.2122C203.079 42.71 203.908 43.4569 204.513 44.4526C205.253 43.5021 206.205 42.7666 207.37 42.2461C208.535 41.703 209.824 41.4314 211.235 41.4314Z" fill="black"/>
<path d="M241 50.8006C241 51.0948 240.978 51.5134 240.933 52.0566H226.851C227.097 53.3918 227.736 54.4554 228.766 55.2475C229.819 56.017 231.119 56.4017 232.665 56.4017C234.637 56.4017 236.261 55.7454 237.538 54.4328L239.79 57.0467C238.983 58.0198 237.964 58.7553 236.732 59.2532C235.499 59.7511 234.11 60 232.564 60C230.592 60 228.856 59.604 227.355 58.8119C225.853 58.0198 224.688 56.9222 223.859 55.5191C223.053 54.0934 222.649 52.4866 222.649 50.6987C222.649 48.9335 223.041 47.3494 223.826 45.9463C224.632 44.5205 225.741 43.4116 227.153 42.6195C228.565 41.8274 230.155 41.4314 231.926 41.4314C233.673 41.4314 235.23 41.8274 236.597 42.6195C237.986 43.389 239.062 44.4866 239.824 45.9123C240.608 47.3154 241 48.9448 241 50.8006ZM231.926 44.826C230.581 44.826 229.438 45.2334 228.497 46.0481C227.579 46.8402 227.019 47.9038 226.817 49.239H237.001C236.821 47.9264 236.272 46.8628 235.354 46.0481C234.435 45.2334 233.292 44.826 231.926 44.826Z" fill="black"/>
<path fill-rule="evenodd" clip-rule="evenodd" d="M36.0667 0.678699C37.3601 -0.250895 39.1088 -0.22313 40.372 0.747022L74.9632 27.3133C76.124 28.2047 76.3431 29.8695 75.4527 31.0316C74.5622 32.1937 72.8994 32.413 71.7386 31.5216L38.1401 5.71776L8.85735 26.7654H11.7031C13.6981 26.7654 15.3153 28.3845 15.3153 30.3818V55.6961H38.1924C39.6554 55.6961 40.8413 56.8834 40.8413 58.348C40.8413 59.8127 39.6554 61 38.1924 61H13.6296C11.6346 61 10.0174 59.3809 10.0174 57.3837V32.0694H3.61907C0.109456 32.0694 -1.3385 27.5646 1.51242 25.5154L36.0667 0.678699Z" fill="#847AE5"/>
</svg>
