<svg width="39" height="39" viewBox="0 0 39 39" fill="none" xmlns="http://www.w3.org/2000/svg">
<g clip-path="url(#clip0)">
<path d="M17.8823 37.3778H14.5112C14.1553 37.3778 13.8668 37.6663 13.8668 38.0222C13.8668 38.3781 14.1553 38.6667 14.5112 38.6667H24.8223C25.1783 38.6667 25.4668 38.3781 25.4668 38.0222C25.4668 37.6663 25.1783 37.3778 24.8223 37.3778H21.4513C24.9667 34.2954 33.8446 25.4014 33.8446 14.1778C33.8446 6.34761 27.497 0 19.6668 0C11.8366 0 5.48901 6.34761 5.48901 14.1778C5.48901 25.4014 14.3669 34.2954 17.8823 37.3778ZM6.7779 14.1778C6.7779 7.05944 12.5485 1.28889 19.6668 1.28889C26.7851 1.28889 32.5557 7.05944 32.5557 14.1778C32.5557 25.946 21.8637 35.38 19.6668 37.1954C17.4699 35.38 6.7779 25.946 6.7779 14.1778Z" fill="#463BB1" stroke="#463BB1" stroke-width="0.666667"/>
<path d="M31.2667 14.1776C31.2667 7.77113 26.0732 2.57764 19.6667 2.57764C13.2601 2.57764 8.06665 7.77113 8.06665 14.1776C8.06665 20.5841 13.2601 25.7776 19.6667 25.7776C26.0701 25.7702 31.2592 20.581 31.2667 14.1776ZM9.35554 14.1776C9.35554 8.48297 13.972 3.86653 19.6667 3.86653C25.3613 3.86653 29.9778 8.48297 29.9778 14.1776C29.9778 19.8723 25.3613 24.4887 19.6667 24.4887C13.9748 24.482 9.36229 19.8695 9.35554 14.1776Z" fill="#463BB1" stroke="#463BB1" stroke-width="0.666667"/>
<path d="M20.786 21.5441C21.2869 21.7729 21.8291 21.8978 22.3797 21.9114C23.3081 21.9688 24.1772 21.4525 24.5708 20.6096C25.0391 19.38 24.8051 17.9931 23.9592 16.9853C23.6568 16.5898 23.3906 16.1679 23.164 15.7247C22.4596 14.4629 21.5838 12.8892 19.6666 12.8892C17.7493 12.8892 16.8735 14.4629 16.1692 15.7247C15.943 16.167 15.6775 16.588 15.3759 16.9827C14.53 17.9906 14.296 19.3774 14.7643 20.607C15.1568 21.4502 16.0251 21.9676 16.9535 21.9114C17.504 21.8978 18.0462 21.7729 18.5472 21.5441C18.8979 21.3774 19.2786 21.2831 19.6666 21.2669C20.0545 21.2831 20.4352 21.3774 20.786 21.5441ZM18.0729 20.3454C17.7221 20.5121 17.3414 20.6063 16.9535 20.6225C16.5296 20.6726 16.1204 20.4496 15.9327 20.0663C15.6737 19.2926 15.8361 18.4398 16.3612 17.8153C16.7174 17.3582 17.0302 16.8688 17.2957 16.3537C18.0497 15.0004 18.5845 14.178 19.6666 14.178C20.7486 14.178 21.2835 15.0004 22.0375 16.3537C22.3029 16.8688 22.6157 17.3582 22.9719 17.8153C23.4971 18.4398 23.6594 19.2926 23.4005 20.0663C23.2127 20.4496 22.8035 20.6726 22.3797 20.6225C21.9917 20.6063 21.611 20.5121 21.2603 20.3454C20.7593 20.1166 20.2172 19.9916 19.6666 19.9781C19.116 19.9916 18.5738 20.1166 18.0729 20.3454Z" fill="#463BB1" stroke="#463BB1" stroke-width="0.666667"/>
<path d="M16.6378 12.8553C16.7568 12.8554 16.8756 12.8452 16.9929 12.825C18.3926 12.582 19.2858 10.9606 18.9823 9.2103C18.6788 7.45999 17.2951 6.23103 15.8922 6.47463C15.1545 6.62452 14.5315 7.11509 14.2128 7.79703C13.8666 8.50937 13.7586 9.31414 13.9047 10.0925C14.1818 11.6914 15.3663 12.8553 16.6378 12.8553ZM15.3605 8.37703C15.5007 8.06064 15.7789 7.82648 16.1145 7.74225C16.1613 7.73405 16.2088 7.72995 16.2563 7.73001C16.9007 7.73001 17.5452 8.46597 17.7147 9.42748C17.8932 10.4586 17.4627 11.433 16.7751 11.5541C16.0875 11.6753 15.3541 10.9013 15.1743 9.86892C15.0776 9.36442 15.1427 8.84226 15.3605 8.37703Z" fill="#463BB1" stroke="#463BB1" stroke-width="0.666667"/>
<path d="M11.8986 16.9809C12.2534 17.2175 12.6695 17.3456 13.096 17.3495C13.2994 17.3495 13.5017 17.3186 13.6959 17.258C14.9384 16.7711 15.5581 15.3755 15.086 14.1273C14.7676 12.8312 13.4659 12.0322 12.166 12.3351C10.9237 12.8225 10.3046 14.2185 10.7772 15.4665C10.9631 16.0865 11.3597 16.6222 11.8986 16.9809ZM12.5488 13.5653C12.6171 13.5441 12.6881 13.5333 12.7596 13.5331C13.2927 13.5975 13.7297 13.9866 13.8551 14.5088C14.1024 15.0782 13.866 15.7417 13.3144 16.0265C13.0689 16.093 12.8065 16.0457 12.5997 15.8976C12.315 15.7015 12.1064 15.4134 12.0088 15.0817C11.7629 14.5129 11.9987 13.8507 12.5488 13.5653Z" fill="#463BB1" stroke="#463BB1" stroke-width="0.666667"/>
<path d="M22.3616 12.824C22.4787 12.8443 22.5973 12.8544 22.7161 12.8543C23.9888 12.8543 25.1733 11.6905 25.4511 10.0884C25.596 9.31155 25.4886 8.50871 25.1443 7.79738C24.8241 7.11617 24.2002 6.62686 23.4623 6.4782C22.0562 6.23396 20.6751 7.46291 20.3722 9.21387C20.2261 9.99227 20.3341 10.797 20.6803 11.5094C21.0015 12.1886 21.6249 12.6761 22.3616 12.824ZM21.6405 9.42911C21.8074 8.46889 22.4544 7.73293 23.0989 7.73293C23.1466 7.73285 23.1943 7.73695 23.2413 7.74518C23.5768 7.82967 23.8549 8.06374 23.9953 8.37996C24.2121 8.84479 24.277 9.36609 24.1809 9.86991C24.0024 10.901 23.2735 11.6744 22.5814 11.5551C22.2455 11.471 21.9672 11.2365 21.8274 10.9197C21.6095 10.4554 21.544 9.93412 21.6405 9.4304V9.42911Z" fill="#463BB1" stroke="#463BB1" stroke-width="0.666667"/>
<path d="M24.2473 14.1266C23.7752 15.3747 24.3949 16.7704 25.6374 17.2573C25.8316 17.3179 26.0339 17.3488 26.2374 17.3488C26.6638 17.3449 27.0799 17.2168 27.4347 16.9802C27.9735 16.6216 28.3701 16.0862 28.5561 15.4664C29.0283 14.2186 28.4092 12.823 27.1673 12.3357C25.8678 12.0327 24.5663 12.831 24.2473 14.1266ZM25.4789 14.5094C25.6864 13.8417 26.2889 13.4099 26.7845 13.5653C27.3355 13.8505 27.5718 14.5136 27.3252 15.0829C27.2276 15.4146 27.019 15.7027 26.7342 15.8988C26.5274 16.0469 26.265 16.0942 26.0195 16.0277C25.4677 15.7429 25.2312 15.0789 25.4789 14.5094Z" fill="#463BB1" stroke="#463BB1" stroke-width="0.666667"/>
</g>
<defs>
<clipPath id="clip0">
<rect x="0.333252" width="38.6667" height="38.6667" fill="white"/>
</clipPath>
</defs>
</svg>
