<svg width="24" height="24" viewBox="0 0 24 24" fill="none" xmlns="http://www.w3.org/2000/svg">
<path d="M12.3333 20.6667C12.0391 20.6667 11.7555 20.5624 11.5344 20.3729C10.6995 19.6582 9.89459 18.9866 9.18442 18.3941L9.1808 18.391C7.09871 16.6541 5.30075 15.154 4.04976 13.6763C2.65135 12.0244 2 10.4581 2 8.74707C2 7.08463 2.58229 5.55093 3.6395 4.42828C4.70931 3.29236 6.17726 2.66675 7.7734 2.66675C8.96636 2.66675 10.0589 3.03597 11.0205 3.76408C11.5059 4.13161 11.9458 4.58141 12.3333 5.10607C12.7211 4.58141 13.1608 4.13161 13.6463 3.76408C14.6079 3.03597 15.7005 2.66675 16.8934 2.66675C18.4894 2.66675 19.9575 3.29236 21.0273 4.42828C22.0845 5.55093 22.6667 7.08463 22.6667 8.74707C22.6667 10.4581 22.0155 12.0244 20.6171 13.6762C19.3661 15.154 17.5683 16.6539 15.4865 18.3907C14.7751 18.9841 13.9689 19.6568 13.1321 20.3732C12.9112 20.5624 12.6274 20.6667 12.3333 20.6667ZM7.7734 3.85191C6.51941 3.85191 5.36745 4.34184 4.52941 5.23156C3.67891 6.13471 3.21046 7.38316 3.21046 8.74707C3.21046 10.1861 3.75681 11.4732 4.98178 12.9201C6.16575 14.3188 7.92681 15.788 9.96586 17.4891L9.96964 17.4922C10.6825 18.087 11.4906 18.7612 12.3316 19.4811C13.1777 18.7598 13.987 18.0845 14.7013 17.4888C16.7402 15.7876 18.5011 14.3188 19.685 12.9201C20.9099 11.4732 21.4562 10.1861 21.4562 8.74707C21.4562 7.38316 20.9878 6.13471 20.1373 5.23156C19.2994 4.34184 18.1473 3.85191 16.8934 3.85191C15.9748 3.85191 15.1314 4.13778 14.3867 4.7015C13.7231 5.20409 13.2608 5.83942 12.9897 6.28397C12.8503 6.51258 12.605 6.64903 12.3333 6.64903C12.0617 6.64903 11.8163 6.51258 11.6769 6.28397C11.4061 5.83942 10.9438 5.20409 10.2799 4.7015C9.53525 4.13778 8.69185 3.85191 7.7734 3.85191Z" fill="#463BB1" stroke="#463BB1" stroke-width="0.666667"/>
</svg>
