<svg width="13" height="14" viewBox="0 0 13 14" fill="none" xmlns="http://www.w3.org/2000/svg">
<g clip-path="url(#clip0)">
<path d="M12.3531 3.24355C12.5239 3.24355 12.6636 3.10384 12.6667 2.93309V0.98031C12.6667 0.806454 12.527 0.666748 12.3531 0.666748H10.4003C10.2296 0.666748 10.0899 0.806454 10.0899 0.98031V1.66021H2.5768V0.98031C2.5768 0.809559 2.43709 0.669853 2.26634 0.666748H0.313562C0.14281 0.666748 0.00310458 0.806454 0 0.98031V2.93309C0 3.10384 0.139706 3.24355 0.313562 3.24355H0.993464V10.7566H0.313562C0.14281 10.7566 0.00310458 10.8963 0 11.0671V13.0199C0 13.1906 0.139706 13.3303 0.313562 13.3334H2.26634C2.43709 13.3334 2.5768 13.1937 2.5768 13.0199V12.34H10.0899V13.0199C10.0899 13.1906 10.2296 13.3303 10.4003 13.3334H12.3531C12.5239 13.3334 12.6636 13.1937 12.6667 13.0199V11.0671C12.6667 10.8963 12.527 10.7566 12.3531 10.7566H11.6732V3.24355H12.3531ZM0.620915 2.62263V1.28766H1.95588V2.62263H0.620915ZM1.95588 12.7125H0.620915V11.3775H1.95588V12.7125ZM10.0899 11.0671V11.719H2.5768V11.0671C2.5768 10.8963 2.43709 10.7566 2.26634 10.7566H1.61438V3.24355H2.26634C2.43709 3.24355 2.5768 3.10384 2.5768 2.93309V2.28113H10.0899V2.93309C10.0899 3.10384 10.2296 3.24355 10.4003 3.24355H11.0523V10.7566H10.4003C10.2296 10.7566 10.0899 10.8963 10.0899 11.0671ZM12.0458 11.3775V12.7125H10.7108V11.3775H12.0458ZM10.7108 2.62263V1.28766H12.0458V2.62263H10.7108Z" fill="#463BB1"/>
</g>
<defs>
<clipPath id="clip0">
<rect y="0.666748" width="12.6667" height="12.6667" fill="white"/>
</clipPath>
</defs>
</svg>
