<svg width="65" height="27" viewBox="0 0 65 27" fill="none" xmlns="http://www.w3.org/2000/svg">
<path d="M27.2808 10.187H31.5031V12.2986H27.2808V10.187Z" fill="#463BB1"/>
<path d="M63.322 7.03129L56.1513 6.00727C54.8438 5.20404 53.4869 4.48499 52.0879 3.854C47.4678 1.7613 42.4534 0.681449 37.381 0.687033H36.1353C30.1493 0.691329 24.2591 2.19342 19.0015 5.05628L15.3827 7.03043C11.1466 7.0781 6.99213 8.20478 3.31186 10.3026C1.81622 11.1604 0.892714 12.7519 0.890137 14.4756V20.7438C0.890137 21.3271 1.36263 21.7996 1.94594 21.7996H5.49047C6.64335 25.0886 10.2442 26.8205 13.5331 25.6676C15.3436 25.0332 16.7667 23.6097 17.4011 21.7996H45.6044C46.7573 25.0886 50.3581 26.8205 53.6471 25.6676C55.4572 25.0332 56.8806 23.6097 57.5151 21.7996H57.8939C58.0284 21.7996 58.1615 21.7743 58.2865 21.7244L61.7056 20.3525C63.233 19.7477 64.2334 18.2692 64.2279 16.6271V8.07635C64.2279 7.55145 63.8417 7.10602 63.322 7.03129ZM15.5833 20.5329C15.1164 22.8176 12.8858 24.2913 10.6011 23.8244C8.31596 23.3575 6.84222 21.127 7.30913 18.8418C7.77646 16.5571 10.007 15.0834 12.2918 15.5503C14.2577 15.9519 15.6692 17.6816 15.6688 19.6884C15.6688 19.9719 15.64 20.255 15.5833 20.5329ZM34.6702 19.6884H17.7799C17.7799 16.1903 14.9446 13.3545 11.4464 13.3545C7.94828 13.3545 5.11248 16.1903 5.11248 19.6884H3.00131V14.4756C3.0026 13.5087 3.52062 12.6157 4.35993 12.1355C7.80481 10.1686 11.7024 9.13344 15.6688 9.13215H34.6702V19.6884ZM34.6702 7.02098H19.8091L20.0127 6.90973C24.5258 4.45707 29.5389 3.06666 34.6702 2.84459V7.02098ZM36.7813 2.7982H37.3788C41.633 2.79348 45.8484 3.60101 49.7997 5.17784L47.9566 7.02098H36.7813V2.7982ZM55.6973 20.5329C55.2304 22.8176 52.9998 24.2913 50.7146 23.8244C48.4299 23.3575 46.9562 21.127 47.4231 18.8418C47.89 16.5571 50.121 15.0834 52.4057 15.5503C54.3717 15.9519 55.7832 17.6816 55.7827 19.6884C55.7827 19.9719 55.754 20.255 55.6973 20.5329ZM62.1167 10.1875H58.9497V12.2991H62.1167V16.6271C62.1193 17.405 61.6451 18.1052 60.9217 18.3908L57.8939 19.6068C57.8939 19.5097 57.8815 19.4135 57.875 19.3165C57.8686 19.2194 57.8664 19.1056 57.8561 18.9999C57.8454 18.8942 57.8243 18.7886 57.8076 18.6833C57.7904 18.5777 57.7779 18.472 57.7569 18.3762C57.7358 18.28 57.7049 18.1735 57.6774 18.0729C57.6499 17.9729 57.6289 17.8715 57.5971 17.7731C57.5657 17.6752 57.5275 17.5811 57.4919 17.4849C57.4558 17.3891 57.4231 17.2899 57.3862 17.1945C57.3493 17.0996 57.2994 17.0133 57.2552 16.9235C57.2109 16.8337 57.1676 16.7354 57.1182 16.6447C57.0683 16.5541 57.0125 16.4768 56.9648 16.3926C56.9176 16.308 56.8596 16.2118 56.7995 16.1254C56.7389 16.0387 56.683 15.9704 56.6251 15.8922C56.5671 15.814 56.5014 15.7221 56.4339 15.6409C56.3665 15.5597 56.3033 15.4962 56.2376 15.4296C56.1723 15.3634 56.0993 15.2737 56.0267 15.1998C55.9537 15.1259 55.882 15.0675 55.8094 15.0022C55.7363 14.9369 55.6582 14.8596 55.5779 14.7909C55.498 14.7226 55.4163 14.6697 55.3365 14.6096C55.2561 14.5495 55.1758 14.485 55.0916 14.4288C55.007 14.3729 54.9121 14.3235 54.8214 14.2642C54.7304 14.205 54.6565 14.1586 54.571 14.1135C54.4855 14.068 54.379 14.0203 54.2819 13.9739C54.1849 13.9275 54.1088 13.8863 54.0191 13.8485C53.9293 13.8102 53.8077 13.7703 53.7025 13.7325C53.5968 13.6943 53.5281 13.6646 53.4383 13.6363C53.3181 13.5993 53.1948 13.5727 53.0719 13.5422C52.9916 13.5233 52.9147 13.498 52.8335 13.4812C52.7038 13.4546 52.5707 13.44 52.4388 13.4206C52.3606 13.4103 52.2859 13.3931 52.2077 13.3858C51.9964 13.3648 51.7855 13.3532 51.5638 13.3532C48.067 13.3566 45.2333 16.1903 45.2299 19.6871H36.7818V9.13172H48.3934C48.6735 9.13172 48.9419 9.02047 49.1395 8.82245L51.877 6.08502C53.026 6.63182 54.1432 7.24305 55.2235 7.9157C55.348 7.99345 55.4872 8.04456 55.6328 8.06561L62.1167 8.99126V10.1875Z" fill="#463BB1"/>
</svg>
