<svg width="38" height="38" viewBox="0 0 38 38" fill="none" xmlns="http://www.w3.org/2000/svg">
<g clip-path="url(#clip0)">
<path d="M14.3829 5.46447C11.8027 2.23988 7.56047 0.962923 3.49012 0.675388C2.75265 0.582046 2.13543 1.23857 2.2796 1.97167C3.37993 7.56698 4.55312 10.889 6.08356 12.743C8.45968 15.6215 11.209 14.7074 14.5693 15.8648C17.084 19.7182 17.3327 22.8851 17.526 27.1833C16.1927 27.4713 15.0053 28.2548 14.2121 29.374C12.3385 28.9072 10.3586 29.7765 9.399 31.4774C7.83422 31.726 6.63442 33.0847 6.63442 34.7183C6.63442 36.5277 8.10652 37.9998 9.91596 37.9998H27.4175C29.2269 37.9998 30.699 36.5277 30.699 34.7183C30.699 33.0847 29.4992 31.726 27.9344 31.4774C26.974 29.7752 24.9935 28.9076 23.1214 29.374C22.3281 28.2548 21.1407 27.4713 19.8075 27.1833C20.0034 22.8244 20.2564 19.7076 22.7641 15.8648C26.1246 14.7074 28.875 15.62 31.2499 12.743C32.7803 10.889 33.9535 7.56698 35.0539 1.97167C35.1976 1.24083 34.5831 0.5819 33.8434 0.675388C29.7436 0.965038 25.5198 2.25352 22.9506 5.46447C21.0321 7.86218 20.3313 10.9953 20.8651 14.7817C19.9304 16.238 19.186 17.7753 18.6667 19.4475C18.1474 17.7751 17.4028 16.2378 16.4683 14.7817C17.0022 10.9953 16.3013 7.86218 14.3829 5.46447ZM24.6588 6.83126C26.7706 4.19196 30.3355 3.29464 32.6111 2.99077C31.6866 7.28791 30.7089 9.96192 29.5627 11.3504C28.3651 12.8013 27.0234 12.79 24.8688 13.1256C25.635 12.2572 26.5219 11.356 27.5496 10.4141C27.995 10.006 28.0252 9.31407 27.617 8.86866C27.2089 8.42332 26.517 8.39313 26.0716 8.80128C24.8618 9.90993 23.8048 10.995 22.8865 12.0739C22.9467 9.9873 23.539 8.23073 24.6588 6.83126ZM21.6448 31.1742C21.9043 31.7423 22.5868 31.9781 23.1417 31.6914C24.4059 31.0382 25.7699 31.7262 26.186 32.897C26.4823 33.7305 27.3999 33.6197 27.4175 33.6244C28.0206 33.6244 28.5113 34.1151 28.5113 34.7183C28.5113 35.3214 28.0206 35.8121 27.4175 35.8121H9.91596C9.31281 35.8121 8.82211 35.3214 8.82211 34.7183C8.82211 34.1151 9.31281 33.6244 9.91596 33.6244C9.95599 33.6136 10.8456 33.7463 11.1475 32.897C11.5605 31.7349 12.919 31.0338 14.1917 31.6914C14.7467 31.978 15.4292 31.7422 15.6887 31.1742C16.2229 30.0051 17.3912 29.2496 18.6655 29.2491H18.6658H18.6667C18.6667 29.2491 18.6674 29.2491 18.6677 29.2491H18.668C19.9423 29.2496 21.1106 30.0051 21.6448 31.1742ZM7.77071 11.3504C6.62457 9.96192 5.64682 7.28791 4.72238 2.99077C6.99794 3.29471 10.5629 4.19196 12.6746 6.83126C13.7944 8.23073 14.3867 9.9873 14.447 12.0738C13.5286 10.995 12.4716 9.90986 11.2619 8.80121C10.8166 8.39306 10.1246 8.42325 9.71644 8.86859C9.30829 9.314 9.33841 10.0059 9.78382 10.414C10.8116 11.3559 11.6986 12.2572 12.4647 13.1255C10.3057 12.7892 8.96628 12.7988 7.77071 11.3504Z" fill="#463BB1"/>
</g>
<defs>
<clipPath id="clip0">
<rect y="0.666504" width="37.3333" height="37.3333" fill="white"/>
</clipPath>
</defs>
</svg>
